<?xml version="1.0" standalone="no"?>
<!DOCTYPE svg PUBLIC "-//W3C//DTD SVG 20010904//EN"
 "http://www.w3.org/TR/2001/REC-SVG-20010904/DTD/svg10.dtd">
<svg version="1.0" xmlns="http://www.w3.org/2000/svg"
 width="71.000000pt" height="71.000000pt" viewBox="0 0 71.000000 71.000000"
 preserveAspectRatio="xMidYMid meet">
<metadata>
Created by potrace 1.14, written by Peter Selinger 2001-2017
</metadata>
<g transform="translate(0.000000,71.000000) scale(0.100000,-0.100000)"
fill="#000000" stroke="none">
<path d="M67 643 c-4 -3 -6 -72 -5 -152 l2 -146 6 140 5 140 283 3 282 2 0
-280 0 -279 -142 -4 -143 -3 148 -2 147 -2 0 295 0 295 -288 0 c-159 0 -292
-3 -295 -7z"/>
<path d="M150 355 l0 -95 40 0 c22 0 40 5 40 10 0 6 -13 10 -30 10 -28 0 -30
3 -30 35 0 29 4 35 23 36 l22 0 -22 9 c-17 7 -23 18 -23 40 0 25 4 30 25 30
14 0 25 5 25 10 0 6 -16 10 -35 10 l-35 0 0 -95z"/>
<path d="M277 443 c-11 -10 -8 -171 3 -178 6 -4 10 14 10 48 0 29 3 57 6 60 4
4 19 -20 35 -53 15 -33 31 -60 34 -60 3 0 4 44 3 98 -1 65 -3 78 -5 40 -2 -32
-9 -58 -14 -58 -6 0 -21 25 -34 55 -26 57 -27 59 -38 48z"/>
<path d="M421 413 c1 -57 22 -146 36 -150 7 -3 16 17 23 51 15 72 26 78 35 18
12 -91 38 -96 49 -10 4 29 9 68 12 86 4 19 2 32 -4 32 -6 0 -14 -27 -18 -61
-8 -70 -19 -66 -34 11 -6 29 -13 56 -16 59 -9 10 -23 -22 -29 -71 -10 -68 -21
-67 -29 2 -8 67 -27 92 -25 33z"/>
</g>
</svg>
